<svg width="900" height="760" viewBox="0 0 900 760" fill="none" xmlns="http://www.w3.org/2000/svg">
  <rect width="900" height="760" rx="36" fill="#DBEAFE"/>
  <rect x="64" y="84" width="772" height="592" rx="30" fill="#EFF6FF"/>
  <rect x="120" y="170" width="230" height="320" rx="18" fill="#BFDBFE"/>
  <rect x="380" y="130" width="390" height="120" rx="22" fill="#93C5FD"/>
  <rect x="380" y="276" width="390" height="120" rx="22" fill="#60A5FA"/>
  <rect x="380" y="422" width="390" height="120" rx="22" fill="#3B82F6"/>

  <circle cx="224" cy="572" r="88" fill="#1E40AF"/>
  <rect x="176" y="530" width="96" height="120" rx="20" fill="#F59E0B"/>
  <rect x="188" y="500" width="72" height="44" rx="12" fill="#FCD34D"/>
  <rect x="194" y="548" width="16" height="44" rx="6" fill="#1E293B"/>
  <rect x="216" y="548" width="16" height="44" rx="6" fill="#1E293B"/>
  <rect x="238" y="548" width="16" height="44" rx="6" fill="#1E293B"/>

  <circle cx="510" cy="588" r="64" fill="#2563EB"/>
  <rect x="470" y="548" width="80" height="90" rx="16" fill="#10B981"/>
  <rect x="484" y="562" width="52" height="10" rx="5" fill="#DCFCE7"/>
  <rect x="484" y="580" width="36" height="10" rx="5" fill="#DCFCE7"/>

  <circle cx="716" cy="594" r="54" fill="#1E40AF"/>
  <rect x="686" y="556" width="60" height="68" rx="12" fill="#0F172A"/>
  <rect x="694" y="566" width="44" height="10" rx="5" fill="#93C5FD"/>
  <rect x="694" y="584" width="28" height="10" rx="5" fill="#93C5FD"/>

  <rect x="150" y="108" width="226" height="36" rx="18" fill="#2563EB"/>
  <text x="168" y="132" fill="#F8FAFC" font-size="18" font-family="Arial, sans-serif" font-weight="700">Citizen Reports Issue</text>

  <rect x="566" y="580" width="214" height="40" rx="20" fill="#1D4ED8"/>
  <text x="584" y="606" fill="#F8FAFC" font-size="18" font-family="Arial, sans-serif" font-weight="700">Contractor Dispatch</text>
</svg>
